<?xml version="1.0" encoding="iso-8859-1"?>
<!-- Generator: Adobe Illustrator 19.0.0, SVG Export Plug-In . SVG Version: 6.00 Build 0)  -->
<svg version="1.1" id="Capa_1" xmlns="http://www.w3.org/2000/svg" xmlns:xlink="http://www.w3.org/1999/xlink" x="0px" y="0px"
	 viewBox="0 0 512 512" style="enable-background:new 0 0 512 512;" xml:space="preserve">
<g>
	<g>
		<g>
			<path d="M512,202.667c0-5.896-4.771-10.667-10.667-10.667H10.667C4.771,192,0,196.771,0,202.667
				c0,102.471,63.198,190.355,152.621,227.01c-2.013,1.939-3.288,4.637-3.288,7.656c0,5.896,4.771,10.667,10.667,10.667h85.333
				h21.333H352c5.896,0,10.667-4.771,10.667-10.667c0-3.02-1.275-5.717-3.288-7.656C448.802,393.022,512,305.138,512,202.667z
				 M266.667,426.667h-21.333c-119.938,0-218.167-94.75-223.75-213.333h468.833C484.833,331.917,386.604,426.667,266.667,426.667z"
				/>
			<path d="M144.594,353.375C118.313,335.74,96.99,311.5,82.917,283.271c-2.615-5.26-8.979-7.438-14.302-4.781
				c-5.271,2.625-7.417,9.031-4.781,14.302c15.708,31.521,39.521,58.604,68.865,78.292c1.833,1.229,3.896,1.813,5.938,1.813
				c3.438,0,6.813-1.656,8.865-4.719C150.781,363.281,149.479,356.656,144.594,353.375z"/>
			<path d="M128,160c0,5.896,4.771,10.667,10.667,10.667c5.896,0,10.667-4.771,10.667-10.667c0-13.229-4.094-21.24-7.375-27.667
				c-2.813-5.521-5.042-9.865-5.042-17.969c0-7.396,1.646-9.833,4.375-13.875c3.396-5.021,8.042-11.885,8.042-25.823
				c0-5.896-4.771-10.667-10.667-10.667C132.771,64,128,68.771,128,74.667c0,7.396-1.646,9.833-4.375,13.875
				c-3.396,5.021-8.042,11.885-8.042,25.823c0,13.229,4.094,21.24,7.375,27.667C125.771,147.552,128,151.896,128,160z"/>
			<path d="M256,160c0,5.896,4.771,10.667,10.667,10.667c5.896,0,10.667-4.771,10.667-10.667c0-13.229-4.094-21.24-7.375-27.667
				c-2.813-5.521-5.042-9.865-5.042-17.969c0-7.396,1.646-9.833,4.375-13.875c3.396-5.021,8.042-11.885,8.042-25.823
				c0-5.896-4.771-10.667-10.667-10.667C260.771,64,256,68.771,256,74.667c0,7.396-1.646,9.833-4.375,13.875
				c-3.396,5.021-8.042,11.885-8.042,25.823c0,13.229,4.094,21.24,7.375,27.667C253.771,147.552,256,151.896,256,160z"/>
			<path d="M384,160c0,5.896,4.771,10.667,10.667,10.667s10.667-4.771,10.667-10.667c0-13.229-4.094-21.24-7.375-27.667
				c-2.813-5.521-5.042-9.865-5.042-17.969c0-7.396,1.646-9.833,4.375-13.875c3.396-5.021,8.042-11.885,8.042-25.823
				c0-5.896-4.771-10.667-10.667-10.667S384,68.771,384,74.667c0,7.396-1.646,9.833-4.375,13.875
				c-3.396,5.021-8.042,11.885-8.042,25.823c0,13.229,4.094,21.24,7.375,27.667C381.771,147.552,384,151.896,384,160z"/>
		</g>
	</g>
</g>
<g>
</g>
<g>
</g>
<g>
</g>
<g>
</g>
<g>
</g>
<g>
</g>
<g>
</g>
<g>
</g>
<g>
</g>
<g>
</g>
<g>
</g>
<g>
</g>
<g>
</g>
<g>
</g>
<g>
</g>
</svg>
